<?xml version="1.0" encoding="UTF-8" standalone="no"?>
<svg width="35px" height="24px" viewBox="0 0 35 24" version="1.1" xmlns="http://www.w3.org/2000/svg" xmlns:xlink="http://www.w3.org/1999/xlink">
    <!-- Generator: Sketch 49.3 (51167) - http://www.bohemiancoding.com/sketch -->
    <title>icon/branding-B&amp;Q</title>
    <desc>Created with Sketch.</desc>
    <defs>
        <polygon id="path-1" points="0.055787234 0.0445212766 7.1412766 0.0445212766 7.1412766 6.4575 0.055787234 6.4575"></polygon>
        <polygon id="path-3" points="0.262180851 0.297287234 6.48207447 0.297287234 6.48207447 10.212766 0.262180851 10.212766"></polygon>
        <polygon id="path-5" points="0 0.042606383 4.57164894 0.042606383 4.57164894 9.7262234 0 9.7262234"></polygon>
    </defs>
    <g id="icon/branding-B&amp;Q" stroke="none" stroke-width="1" fill="none" fill-rule="evenodd">
        <rect id="Rectangle-28" fill="#EC6C00" x="0" y="0" width="35" height="24"></rect>
        <g id="Page-1" transform="translate(3.000000, 7.000000)">
            <g id="Group-3" transform="translate(22.659574, 3.532500)">
                <mask id="mask-2" fill="white">
                    <use xlink:href="#path-1"></use>
                </mask>
                <g id="Clip-2"></g>
                <path d="M0.274723404,0.0445212766 L0.274723404,1.24228723 L1.54940426,1.24228723 L1.20185106,1.69292553 L0.364723404,1.69292553 L0.364723404,2.78728723 L2.88855319,2.78728723 L2.88855319,3.23824468 L0.364723404,3.23824468 L0.364723404,4.64154255 L2.91440426,4.64154255 L2.91440426,5.05356383 L0.055787234,5.05356383 L0.055787234,6.4575 L4.15046809,6.4575 L4.15046809,1.60260638 L3.24919149,1.60260638 L3.55844681,1.17781915 L4.15046809,1.17781915 L4.15046809,0.0445212766 L0.274723404,0.0445212766 Z M4.15046809,6.4575 L7.12525532,6.4575 L7.12525532,5.06664894 L4.58834043,5.06664894 L4.58834043,4.57739362 L6.91908511,4.57739362 L6.91908511,3.23824468 L4.58834043,3.23824468 L4.58834043,2.78728723 L6.58429787,2.78728723 C6.82908511,2.78728723 7.3697234,2.69728723 7.03493617,2.18218085 L6.40429787,1.17781915 L6.88078723,1.17781915 L6.88078723,0.0445212766 L4.15046809,0.0445212766 L4.15046809,1.17781915 L4.76897872,1.17781915 L5.03929787,1.60260638 L4.15046809,1.60260638 L4.15046809,6.4575 Z" id="Fill-1" fill="#FFFFFF" mask="url(#mask-2)"></path>
            </g>
            <path d="M6.05224468,8.53487234 L6.86352128,7.59497872 C6.86352128,7.59497872 5.70437234,6.46168085 5.25373404,6.13965957 L4.28830851,7.14402128 C4.73894681,7.53019149 5.22788298,7.95529787 5.67884043,8.34146809 L6.05224468,8.53487234 Z" id="Fill-4" fill="#FFFFFF"></path>
            <g id="Group-8" transform="translate(3.510638, 0.021862)">
                <mask id="mask-4" fill="white">
                    <use xlink:href="#path-3"></use>
                </mask>
                <g id="Clip-7"></g>
                <path d="M2.64462766,0.297287234 L4.0868617,0.297287234 L4.0868617,1.14718085 L6.14728723,1.14718085 L6.14728723,2.60218085 L4.13824468,2.60218085 L4.13824468,3.13037234 L6.48207447,3.13037234 L6.48207447,4.57228723 L5.52909574,4.57228723 L5.52909574,5.11324468 L6.48207447,5.11324468 L6.48207447,6.63271277 L5.5418617,6.63271277 L5.5418617,8.65452128 C5.61909574,9.63335106 5.05260638,10.2129255 3.9837766,10.2129255 C3.46867021,10.2129255 2.65771277,10.0839894 2.1681383,9.92920213 L2.1681383,8.30696809 C2.6187766,8.57728723 3.1725,8.87345745 3.9837766,8.71898936 L3.9837766,6.6068617 L0.532819149,6.6068617 L0.532819149,5.13909574 L4.04824468,5.13909574 L4.04824468,4.57228723 L0.262180851,4.57228723 L0.262180851,3.15590426 L2.65771277,3.15590426 L2.65771277,2.60218085 L0.648670213,2.60218085 L0.648670213,1.15994681 L2.64462766,1.15994681 L2.64462766,0.297287234 Z" id="Fill-6" fill="#FFFFFF" mask="url(#mask-4)"></path>
            </g>
            <path d="M10.9327021,1.56820213 L14.0102553,1.56820213 L14.0102553,0.357670213 L15.4528085,0.357670213 L15.4528085,1.51681915 L19.3544043,1.51681915 C19.8050426,1.51681915 20.0495106,1.77437234 20.0495106,2.1477766 L20.0495106,4.37543617 C19.9984468,5.62458511 20.1139787,8.32873404 19.1999362,9.29447872 C18.7751489,9.89990426 17.744617,10.1702234 16.8688723,10.1316064 C16.3540851,10.1316064 15.0790851,9.95128723 14.834617,9.86128723 L14.834617,8.29011702 C15.4528085,8.49596809 16.5340851,8.65075532 17.0881277,8.62490426 C17.783234,8.62490426 18.2341915,8.31596809 18.3241915,7.47884043 C18.4786596,6.70618085 18.5300426,5.92043617 18.5300426,5.5215 L18.5300426,2.99767021 L15.4138723,2.99767021 C14.963234,6.46139362 14.1391915,8.1615 11.4347234,10.1316064 L10.3403617,9.04969149 C12.5038723,7.55607447 13.6885532,5.59873404 13.9330213,2.99767021 L10.9199362,2.99767021 L10.9327021,1.56820213 Z" id="Fill-9" fill="#FFFFFF"></path>
            <path d="M25.368,3.13924468 L22.548,3.13924468 L22.548,6.62881915 C22.548,8.01967021 22.2128936,9.47467021 21.9425745,9.9897766 L20.2686383,9.9897766 C20.9899149,9.16573404 21.0154468,8.29030851 21.0799149,7.13115957 L21.0799149,0.409244681 L25.368,0.409244681 L25.368,1.47807447 L22.5090638,1.47807447 L22.5090638,2.10903191 L25.368,2.10903191 L25.368,3.13924468 Z M29.7205532,0.409244681 L29.7205532,3.13924468 L25.368,3.13924468 L25.368,2.10903191 L28.2138511,2.10903191 L28.2138511,1.47807447 L25.368,1.47807447 L25.368,0.409244681 L29.7205532,0.409244681 Z" id="Fill-11" fill="#FFFFFF"></path>
            <g id="Group-15" transform="translate(0.000000, 0.341011)">
                <mask id="mask-6" fill="white">
                    <use xlink:href="#path-5"></use>
                </mask>
                <g id="Clip-14"></g>
                <path d="M4.15930851,1.85824468 L3.36079787,1.85824468 L3.36079787,0.042606383 L1.94441489,0.042606383 L1.94441489,1.81962766 L1.81579787,1.81962766 L1.81579787,0.583244681 L0.450478723,0.583244681 C0.450478723,1.30452128 0.438031915,3.3518617 -0.000159574468,4.5237766 L1.37792553,4.72994681 C1.44239362,4.44654255 1.66132979,3.55803191 1.66132979,3.31324468 L1.93164894,3.31324468 L1.93164894,5.33505319 C1.67409574,5.45090426 0.399095745,5.95324468 0.0643085106,6.05632979 L0.708351064,7.40824468 L1.94441489,6.93175532 L1.94441489,9.7262234 L3.38664894,9.7262234 L3.38664894,6.22356383 L4.57164894,5.45090426 L3.72143617,4.30484043 L3.43803191,4.49792553 L3.43803191,3.31324468 L4.15930851,3.31324468 L4.15930851,1.85824468 Z" id="Fill-13" fill="#FFFFFF" mask="url(#mask-6)"></path>
            </g>
        </g>
    </g>
</svg>