<svg xmlns="http://www.w3.org/2000/svg" width="111" height="40" viewBox="0 0 111 40">
    <g fill="none" fill-rule="evenodd" transform="translate(0 1)">
        <path fill="#4A4A4A" d="M24.817 19.14h-11.18l-1.145-1.768s-.422.293-1.149.753v-4h1.149v3.247h12.325v1.769zm0 11.988s-3.03.535-4.674-.887l2.698-2.967-3.22-3.082h5.196v6.936zm-10.93-18.613h6.521v-1.872h-6.52v1.872zm16.196 6.626v-1.77h3.027v-4.856h-7.916v-1.872h6.79V5.786h-6.79V2.85h-4.787v2.936h-6.52v3.33h-2.544V3.082H6.557v6.036h-.446V4.924H1.72C2.123 13.95 0 18.23 0 18.23l4.706.582c.659-1.456.888-4.687.888-4.687h.963v6.693c-1.953.965-4.192 1.904-6.405 2.466l2.31 4.433s1.766-.514 4.095-1.497v9.388h4.786V23.806c.724-.44 1.43-.913 2.096-1.422v1.808h2.167l-1.373 1.598 4.57 4.142v5.131s3.29 1.299 6.64.99c3.35-.31 4.084-1.989 4.084-1.989s.554-.6.556-2.936v-6.936h3.107v-5.051h-3.107z"/>
        <path fill="#FF5959" d="M66.316 6.95H52.701v-4.1h-5.042v4.1H37.126v4.903h10.152c-.025 2.8-.977 12.413-12.192 20.523l3.609 3.589c12.443-7.502 13.55-20.739 13.626-24.112h10.627v10.716s.254 4.807-1.651 6.74c-.755.768-1.535 1.31-2.695 1.51-1.548.268-4.681.14-8.186-1.223v5.506s7.869 2.245 12.532 0c4.662-2.246 5.054-8.477 5.054-8.477l.274-14.772V8.899a1.954 1.954 0 0 0-1.96-1.949"/>
        <ellipse cx="91.034" cy="19" stroke="#FF5959" stroke-width=".678" rx="19.305" ry="19.339"/>
        <path fill="#FF5959" d="M89.134 17.1h-5.686v3.8h5.686v5.686h3.8V20.9h5.687v-3.8h-5.687v-5.686h-3.8V17.1zm1.9 18.05c-8.903 0-16.12-7.23-16.12-16.15 0-8.92 7.217-16.15 16.12-16.15 8.904 0 16.121 7.23 16.121 16.15 0 8.92-7.217 16.15-16.12 16.15z"/>
    </g>
</svg>
